<?xml version="1.0" encoding="UTF-8" standalone="no"?>
<!-- Created with Inkscape (http://www.inkscape.org/) -->

<svg
   xmlns:dc="http://purl.org/dc/elements/1.1/"
   xmlns:cc="http://creativecommons.org/ns#"
   xmlns:rdf="http://www.w3.org/1999/02/22-rdf-syntax-ns#"
   xmlns:svg="http://www.w3.org/2000/svg"
   xmlns="http://www.w3.org/2000/svg"
   xmlns:sodipodi="http://sodipodi.sourceforge.net/DTD/sodipodi-0.dtd"
   xmlns:inkscape="http://www.inkscape.org/namespaces/inkscape"
   width="15.00001mm"
   height="15mm"
   viewBox="0 0 15.000009 15"
   version="1.1"
   id="svg18"
   inkscape:version="0.92.4 (5da689c313, 2019-01-14)"
   sodipodi:docname="logo.svg">
  <defs
     id="defs12" />
  <sodipodi:namedview
     id="base"
     pagecolor="#ffffff"
     bordercolor="#666666"
     borderopacity="1.0"
     inkscape:pageopacity="0.0"
     inkscape:pageshadow="2"
     inkscape:zoom="3.5236509"
     inkscape:cx="-28.887402"
     inkscape:cy="48.009026"
     inkscape:document-units="mm"
     inkscape:current-layer="layer1"
     showgrid="false"
     inkscape:window-width="1366"
     inkscape:window-height="741"
     inkscape:window-x="0"
     inkscape:window-y="0"
     inkscape:window-maximized="1"
     width="50mm" />
  <metadata
     id="metadata15">
    <rdf:RDF>
      <cc:Work
         rdf:about="">
        <dc:format>image/svg+xml</dc:format>
        <dc:type
           rdf:resource="http://purl.org/dc/dcmitype/StillImage" />
        <dc:title></dc:title>
      </cc:Work>
    </rdf:RDF>
  </metadata>
  <g
     inkscape:label="Camada 1"
     inkscape:groupmode="layer"
     id="layer1"
     transform="translate(0,-282)">
    <path
       inkscape:connector-curvature="0"
       id="path4201-3"
       style="fill:#ffffff;fill-opacity:0.31192663;stroke-width:0.03006858"
       d="m 12.646873,283.62141 c -0.0012,-3e-4 -0.0034,0.0111 -0.0021,0.015 8.92e-4,0.002 0.0018,0.003 0.0023,0.005 v -0.019 h -1.07e-4 c -8.3e-5,-4.2e-4 -2.13e-4,-6.4e-4 -2.95e-4,-6.4e-4 z m -9.0835573,3.15026 c -0.00763,0.008 -0.017245,0.0134 -0.025829,0.0201 -0.00151,4.2e-4 -0.00328,6.5e-4 -0.00452,0.002 -0.018792,0.0148 -0.035885,0.0319 -0.057645,0.0429 -0.025652,0.018 -0.052011,0.0349 -0.079283,0.0505 -0.00432,0.003 -0.00787,0.009 -0.012901,0.008 -9.168e-4,-6e-5 9.167e-4,-4.4e-4 9.167e-4,-6.7e-4 -0.00879,0.008 -0.018254,0.0145 -0.02539,0.0192 -0.00393,0.005 -0.0071,0.0114 -0.011335,0.0165 -0.023194,0.0284 -0.033187,0.0357 -0.059684,0.0595 -0.018077,0.0234 -0.00452,0.006 -0.033089,0.034 0.04027,0.007 0.070247,0.033 0.1081865,0.0716 0.079586,0.0812 0.4533499,0.49573 0.8304826,0.92121 0.5566924,0.62807 0.6744424,0.80424 0.6261125,0.93648 -0.1310405,0.35856 -0.057954,0.68677 0.2040411,0.91637 0.3758128,0.32935 0.838045,0.26518 1.1832352,-0.16446 0.1193705,-0.14859 0.1304848,-0.58591 0.020032,-0.78831 -0.1270043,-0.23277 -0.5406023,-0.40862 -0.8466127,-0.35991 -0.2584959,0.0411 -0.2934227,0.0127 -1.0635948,-0.86423 -0.3703629,-0.42167 -0.6742,-0.79467 -0.7527982,-0.92033 z m -1.9792523,1.4316 c -0.00177,0.003 -0.00347,0.004 -0.00537,0.006 0.00177,-0.002 0.00439,-0.003 0.00616,-0.005 0,-3e-4 -9.168e-4,-6.5e-4 -9.168e-4,-0.002 z m -0.2029404,0.18884 c -0.012809,0.009 -0.02518,0.0172 -0.038376,0.025 -0.014408,0.009 -0.03031,0.0143 -0.044928,0.0224 -0.00926,0.005 -0.017075,0.014 -0.027519,0.016 -0.00419,6.5e-4 0.0081,-0.0128 0.00407,-0.0115 -0.0055,0.002 -0.00693,0.009 -0.010418,0.0135 -0.00733,0.0108 -0.014113,0.022 -0.021924,0.0325 -0.036594,0.049 -0.083827,0.089 -0.132248,0.12712 l 0.2174207,0.26709 c 0.1357364,0.16671 0.6833783,0.82012 1.2170956,1.45213 0.8496057,1.00606 1.0030118,1.15225 1.2315733,1.17393 0.1847169,0.0175 0.2896784,0.0818 0.3591397,0.21979 0.3162015,0.62835 1.1922258,0.627 1.4579685,-0.003 0.1666115,-0.39453 -0.04984,-0.86601 -0.4699138,-1.02352 -0.2649691,-0.0994 -0.6806645,0.0496 -0.9022778,0.32324 -0.3279628,0.40507 -0.4864023,0.293 -1.7291803,-1.22271 -0.6080462,-0.74158 -1.1031275,-1.37135 -1.1105039,-1.4125 z m 4.1235666,0.47129 c 0.010774,-1e-4 0.02163,1.1e-4 0.032534,6.6e-4 0.080614,0.005 0.1649257,0.0311 0.2475366,0.0841 0.2468525,0.15864 0.276698,0.5088 0.059681,0.70144 -0.2215165,0.19661 -0.543996,0.16344 -0.7013203,-0.0721 -0.2272177,-0.34012 0.027812,-0.71018 0.3615635,-0.71426 z m 1.3637108,1.8562 c -0.00122,0.007 -0.00325,0.0161 -0.00325,0.0207 v 2.9e-4 c 0.00455,-0.004 0.00855,-0.008 0.013492,-0.0109 -0.00325,-0.003 -0.00714,-0.007 -0.010239,-0.0101 z m -1.9640552,0.23658 c 0.051926,0.002 0.1071565,0.0279 0.1940197,0.0754 0.2604271,0.1427 0.3325224,0.53308 0.1342852,0.72753 -0.198537,0.19472 -0.5685565,0.16154 -0.7195431,-0.0645 -0.1664168,-0.2491 -0.1260522,-0.41799 0.1476639,-0.61824 0.1026329,-0.0752 0.162502,-0.11349 0.2214392,-0.11953 0.00737,-6.5e-4 0.014702,-6.5e-4 0.022133,-6.5e-4 z m 4.6012952,0.62507 c -0.127933,-0.004 -0.262771,0.0335 -0.414141,0.11034 -0.285409,0.14475 -0.3963,0.33646 -0.3963,0.68513 0,0.26431 0.289371,0.67984 0.47349,0.67984 0.160377,0 0.08874,0.46475 -0.09558,0.61989 -0.313393,0.26381 -2.5327689,1.93336 -3.1599527,2.38326 0.023407,0.0446 0.046237,0.0894 0.075534,0.13032 0.018466,0.0258 0.081043,0.0838 0.1396812,0.13677 0.236848,-0.1961 0.8895935,-0.70393 1.6473114,-1.27948 0.9344731,-0.70982 1.7205231,-1.34564 1.7468531,-1.41293 0.02633,-0.0673 0.0479,-0.20809 0.0479,-0.31296 0,-0.12578 0.06087,-0.21357 0.178991,-0.25788 0.3108926,-0.11661 0.4937526,-0.3845 0.4937526,-0.72356 0,-0.2555 -0.04814,-0.35594 -0.2581646,-0.54 -0.161936,-0.14191 -0.314911,-0.21407 -0.47938,-0.21874 z m -0.02846,0.30468 c 0.21653,0 0.491058,0.26178 0.491058,0.46826 0,0.0858 -0.0716,0.22634 -0.159118,0.31218 -0.198582,0.19478 -0.491225,0.20068 -0.664043,0.0134 -0.275588,-0.29867 -0.06844,-0.79382 0.332103,-0.79382 z m -2.6870641,0.46337 c -0.3979751,0.002 -0.7438654,0.32136 -0.7338026,0.81336 l 0.00714,0.34994 -0.7496648,0.59143 c -0.2589033,0.20423 -0.4888903,0.37572 -0.640593,0.4813 0.014232,0.0176 0.028496,0.0359 0.041954,0.0506 0.048814,0.0477 0.094748,0.0978 0.1400123,0.14867 0.020593,0.01 0.042039,0.0195 0.061714,0.03 0.4386619,-0.35608 1.3601519,-1.05566 1.3995548,-1.05566 0.035073,0 0.1523979,0.0395 0.2606402,0.0879 0.1082318,0.0484 0.291951,0.0645 0.408361,0.0359 0.6151581,-0.15142 0.8231141,-0.93681 0.3511007,-1.32637 -0.1738186,-0.14346 -0.3655546,-0.20803 -0.546443,-0.20702 z m 0.061385,0.31707 c 0.1927054,0 0.4910562,0.25434 0.4910562,0.41866 0,0.0585 -0.074204,0.19908 -0.1648981,0.31217 -0.1883177,0.23481 -0.3595336,0.25829 -0.613061,0.0841 -0.3445777,-0.23672 -0.1410272,-0.81496 0.2869029,-0.81496 z"
       inkscape:export-xdpi="300"
       inkscape:export-ydpi="300" />
    <path
       inkscape:connector-curvature="0"
       style="fill:#000000;stroke-width:0.03006858"
       d="m 13.636172,282.15595 -1.82884,1.82073 c -1.005826,1.00139 -1.8609956,1.87925 -1.9004286,1.95088 -0.04987,0.0905 -0.04806,0.1539 0.0059,0.20783 0.05663,0.0566 -0.05332,0.21051 -0.407923,0.5709 -0.42492,0.43187 -0.521103,0.58131 -0.772096,1.19921 -0.157697,0.38825 -0.286705,0.75899 -0.286708,0.82383 0,0.16608 0.06089,0.15389 0.863239,-0.17313 0.62063,-0.25293 0.7786116,-0.35383 1.2050916,-0.76944 0.380687,-0.371 0.524219,-0.46947 0.63978,-0.43917 0.12204,0.032 0.48661,-0.29333 2.01577,-1.79883 1.026721,-1.01083 1.866719,-1.87375 1.866719,-1.9177 0,-0.0439 -0.315154,-0.39387 -0.70027,-0.77754 z m -8.93e-4,0.41878 0.527667,0.52761 0.527432,0.5275 -0.163144,0.15351 -0.163262,0.1534 -0.520915,-0.52451 -0.520973,-0.52431 0.156567,-0.15668 z m -0.493373,0.49062 0.527084,0.52356 0.526962,0.52331 -1.454862,1.45616 c -0.800136,0.80081 -1.471681,1.45603 -1.492273,1.45603 -0.0206,0 -0.265013,-0.22932 -0.543348,-0.50951 l -0.506073,-0.50941 1.471304,-1.47007 z m 0.159975,0.4108 c -0.05971,0.003 -0.144595,0.0671 -0.29628,0.21518 -0.152596,0.14899 -0.261088,0.29728 -0.241136,0.32957 0.07101,0.11491 0.214217,0.0554 0.448915,-0.18676 0.185041,-0.1909 0.219207,-0.26435 0.153806,-0.32975 -0.01633,-0.0163 -0.03356,-0.0258 -0.05368,-0.0279 -0.0038,-2.9e-4 -0.0076,-4.2e-4 -0.01163,-2.9e-4 z m -0.786716,0.81567 c -0.08752,0.004 -0.323285,0.21299 -0.934239,0.81026 -1.004008,0.98149 -1.061023,1.04741 -0.996609,1.15165 0.02364,0.0383 0.06526,0.0695 0.09244,0.0695 0.02719,0 0.471528,-0.42306 0.987448,-0.94005 0.716503,-0.71798 0.926864,-0.96917 0.890662,-1.0635 -0.0072,-0.0187 -0.0195,-0.0288 -0.0397,-0.0279 z m -2.347286,2.10073 0.345846,0.35114 0.345849,0.35126 -0.418261,0.42806 c -0.230048,0.23549 -0.5224016,0.4731 -0.6496436,0.52803 -0.568025,0.24517 -0.925434,0.36949 -0.925784,0.32194 0,-0.0284 0.09562,-0.29031 0.213003,-0.58211 0.169172,-0.42053 0.304213,-0.62061 0.651175,-0.96449 z m -1.4996316,3.8458 c 0.03585,0.0235 0.07195,0.0464 0.107942,0.0696 0.0015,-0.003 0.0029,-0.005 0.0043,-0.007 -0.03692,-0.0246 -0.07436,-0.0458 -0.112229,-0.0629 z m 1.7764546,0.22081 c -0.02503,0.01 -0.04122,0.0164 -0.0242,0.0127 0.0087,-0.002 0.01912,-0.005 0.0285,-0.008 -0.0015,-0.002 -0.0027,-0.004 -0.0042,-0.005 z m -0.107765,0.073 c -0.01468,0.003 -0.02565,0.005 -0.03976,0.008 0.0021,0.003 0.0043,0.005 0.0065,0.008 0.01263,-0.006 0.02041,-0.01 0.03324,-0.0151 z m -3.0776826,1.42062 v 0.0132 c 0.00292,-0.003 0.00552,-0.005 0.00846,-0.007 -0.00292,-0.002 -0.00559,-0.004 -0.00846,-0.007 z"
       id="path4201-5"
       inkscape:export-xdpi="300"
       inkscape:export-ydpi="300" />
    <path
       style="fill:none;fill-rule:evenodd;stroke:#000000;stroke-width:0.31962663;stroke-linecap:round;stroke-linejoin:round;stroke-miterlimit:4;stroke-dasharray:none;stroke-opacity:1"
       d="m 8.6516334,286.23998 -1.7606538,-2.0281 -6.55230993,5.14824 6.03971543,7.46607 6.5077349,-4.94765 -2.273252,-3.12016"
       id="path4748"
       inkscape:connector-curvature="0"
       inkscape:export-xdpi="300"
       inkscape:export-ydpi="300" />
  </g>
</svg>
