<?xml version="1.0" encoding="UTF-8" standalone="no"?>
<!-- Created with Inkscape (http://www.inkscape.org/) -->

<svg
   xmlns:dc="http://purl.org/dc/elements/1.1/"
   xmlns:cc="http://creativecommons.org/ns#"
   xmlns:rdf="http://www.w3.org/1999/02/22-rdf-syntax-ns#"
   xmlns:svg="http://www.w3.org/2000/svg"
   xmlns="http://www.w3.org/2000/svg"
   xmlns:sodipodi="http://sodipodi.sourceforge.net/DTD/sodipodi-0.dtd"
   xmlns:inkscape="http://www.inkscape.org/namespaces/inkscape"
   width="19mm"
   height="19mm"
   viewBox="0 0 19 19"
   version="1.1"
   id="svg18"
   inkscape:version="0.92.4 (5da689c313, 2019-01-14)"
   sodipodi:docname="logo-footer.svg">
  <defs
     id="defs12" />
  <sodipodi:namedview
     id="base"
     pagecolor="#ffffff"
     bordercolor="#666666"
     borderopacity="1.0"
     inkscape:pageopacity="0.0"
     inkscape:pageshadow="2"
     inkscape:zoom="3.5236509"
     inkscape:cx="-0.79154272"
     inkscape:cy="48.009026"
     inkscape:document-units="mm"
     inkscape:current-layer="layer1"
     showgrid="false"
     inkscape:window-width="1366"
     inkscape:window-height="741"
     inkscape:window-x="0"
     inkscape:window-y="0"
     inkscape:window-maximized="1"
     width="50mm" />
  <metadata
     id="metadata15">
    <rdf:RDF>
      <cc:Work
         rdf:about="">
        <dc:format>image/svg+xml</dc:format>
        <dc:type
           rdf:resource="http://purl.org/dc/dcmitype/StillImage" />
        <dc:title></dc:title>
      </cc:Work>
    </rdf:RDF>
  </metadata>
  <g
     inkscape:label="Camada 1"
     inkscape:groupmode="layer"
     id="layer1"
     transform="translate(0,-278)">
    <path
       inkscape:connector-curvature="0"
       id="path4201-3"
       style="fill:#2c8240;fill-opacity:1;stroke-width:0.03706101"
       d="m 15.695917,280.1142 c -0.0015,-3.6e-4 -0.0041,0.0137 -0.0026,0.0185 0.0011,0.002 0.0022,0.004 0.0029,0.006 v -0.0235 h -1.31e-4 c -1.02e-4,-5.2e-4 -2.63e-4,-8e-4 -3.64e-4,-8e-4 z m -11.1959346,3.88285 c -0.00941,0.009 -0.021256,0.0166 -0.031835,0.0248 -0.00186,5.2e-4 -0.00404,8e-4 -0.00557,0.002 -0.023162,0.0183 -0.044231,0.0393 -0.071051,0.0528 -0.031617,0.0221 -0.064106,0.043 -0.09772,0.0622 -0.00533,0.003 -0.0097,0.0108 -0.015901,0.01 -0.00113,-7e-5 0.00113,-5.3e-4 0.00113,-8.1e-4 -0.010838,0.009 -0.022499,0.0179 -0.031294,0.0237 -0.00485,0.006 -0.00875,0.0141 -0.013971,0.0204 -0.028588,0.0349 -0.040904,0.0439 -0.073563,0.0733 -0.022281,0.0288 -0.00557,0.007 -0.040783,0.0419 0.049634,0.008 0.086584,0.0406 0.1333452,0.0883 0.098094,0.10015 0.5587762,0.61101 1.0236109,1.13544 0.6861509,0.77412 0.8312836,0.99126 0.7717145,1.15425 -0.1615138,0.44195 -0.071431,0.84648 0.2514909,1.12947 0.4632078,0.40594 1.0329318,0.32685 1.4583958,-0.2027 0.14713,-0.18314 0.160829,-0.72216 0.02469,-0.97163 -0.156539,-0.2869 -0.666319,-0.50364 -1.043492,-0.44361 -0.318609,0.0507 -0.361658,0.0156 -1.3109331,-1.06521 -0.4564907,-0.51973 -0.8309848,-0.97947 -0.9278611,-1.13435 z m -2.4395263,1.76452 c -0.00218,0.003 -0.00428,0.005 -0.00662,0.007 0.00218,-0.002 0.00541,-0.004 0.00759,-0.006 0,-3.7e-4 -0.00113,-8.1e-4 -0.00113,-0.002 z m -0.2501342,0.23276 c -0.015788,0.0103 -0.031035,0.0212 -0.0473,0.0308 -0.017759,0.0104 -0.037359,0.0176 -0.055376,0.0276 -0.011411,0.006 -0.021046,0.0173 -0.033919,0.0197 -0.00517,8e-4 0.00999,-0.0158 0.00501,-0.0142 -0.00678,0.002 -0.00854,0.011 -0.012841,0.0166 -0.00904,0.0133 -0.017395,0.0271 -0.027022,0.04 -0.045104,0.0604 -0.1033208,0.10967 -0.1630022,0.15669 l 0.2679818,0.3292 c 0.1673018,0.20547 0.8422976,1.01084 1.5001305,1.78982 1.047181,1.24002 1.2362617,1.4202 1.5179749,1.44693 0.2276727,0.0216 0.357043,0.10075 0.4426575,0.2709 0.3897341,0.77447 1.4694773,0.77281 1.7970183,-0.003 0.205357,-0.48628 -0.06143,-1.0674 -0.579192,-1.26154 -0.3265875,-0.12246 -0.8389526,0.0611 -1.1121021,0.39841 -0.4042302,0.49928 -0.5995148,0.36115 -2.1313002,-1.50705 -0.749447,-0.91403 -1.3596591,-1.69026 -1.3687509,-1.74097 z m 5.0824998,0.58089 c 0.01328,-1.4e-4 0.02666,1.3e-4 0.0401,8.1e-4 0.09936,0.006 0.203279,0.0383 0.305101,0.10369 0.304258,0.19553 0.341044,0.62712 0.07356,0.86455 -0.27303,0.24234 -0.670502,0.20146 -0.864412,-0.0888 -0.280057,-0.41921 0.03428,-0.87533 0.445645,-0.88036 z m 1.680841,2.28786 c -0.0015,0.008 -0.004,0.0199 -0.004,0.0254 v 3.7e-4 c 0.0056,-0.005 0.01054,-0.009 0.01663,-0.0135 -0.004,-0.004 -0.0088,-0.008 -0.01262,-0.0124 z m -2.4207951,0.29159 c 0.064001,0.002 0.1320757,0.0343 0.2391388,0.093 0.3209893,0.17588 0.4098503,0.65706 0.1655133,0.89672 -0.2447067,0.24 -0.7007742,0.19911 -0.8868725,-0.0795 -0.2051169,-0.30703 -0.1553656,-0.51519 0.1820031,-0.76201 0.1265001,-0.0926 0.2002916,-0.13988 0.2729346,-0.14732 0.00908,-8.1e-4 0.018122,-8.1e-4 0.02728,-8.1e-4 z m 5.6713244,0.77043 c -0.157685,-0.005 -0.323879,0.0414 -0.510451,0.136 -0.35178,0.17841 -0.488459,0.41471 -0.488459,0.84445 0,0.32577 0.356664,0.83795 0.5836,0.83795 0.197673,0 0.109374,0.57282 -0.117806,0.76404 -0.386273,0.32515 -3.1217633,2.38296 -3.8947983,2.93748 0.02885,0.0549 0.05699,0.11021 0.0931,0.16063 0.02276,0.0317 0.09989,0.10324 0.172164,0.16857 0.291927,-0.2417 1.096468,-0.86762 2.0303929,-1.57702 1.1517844,-0.87489 2.1206294,-1.65856 2.1530834,-1.74151 0.03246,-0.0829 0.05904,-0.25648 0.05904,-0.38573 0,-0.15503 0.07503,-0.26324 0.220615,-0.31785 0.383189,-0.14373 0.608574,-0.47391 0.608574,-0.89183 0,-0.31492 -0.05934,-0.43871 -0.3182,-0.66557 -0.199594,-0.17491 -0.388144,-0.26385 -0.59086,-0.26961 z m -0.03508,0.37553 c 0.266884,0 0.605252,0.32266 0.605252,0.57716 0,0.10581 -0.08825,0.27896 -0.19612,0.38477 -0.244762,0.24008 -0.605459,0.24735 -0.818465,0.0165 -0.339677,-0.36813 -0.08435,-0.97842 0.409333,-0.97842 z m -3.3119393,0.57113 c -0.490524,0.002 -0.916851,0.39608 -0.904448,1.0025 l 0.0088,0.43132 -0.923993,0.72896 c -0.3191111,0.25174 -0.6025815,0.4631 -0.7895625,0.59324 0.017541,0.0217 0.035122,0.0442 0.05171,0.0623 0.060165,0.0587 0.1167816,0.12061 0.172572,0.18324 0.025382,0.0123 0.051815,0.0241 0.076066,0.037 0.5406725,-0.43888 1.6764545,-1.30116 1.7250205,-1.30116 0.04323,0 0.187838,0.0487 0.321252,0.10837 0.133401,0.0596 0.359844,0.0795 0.503325,0.0442 0.7582129,-0.18665 1.0145289,-1.15467 0.432749,-1.63483 -0.21424,-0.17682 -0.450564,-0.25639 -0.673518,-0.25515 z m 0.07566,0.3908 c 0.237519,0 0.605251,0.31348 0.605251,0.51602 0,0.0722 -0.09146,0.24537 -0.203245,0.38476 -0.232111,0.28943 -0.443143,0.31837 -0.755628,0.1037 -0.424709,-0.29177 -0.173823,-1.00448 0.353622,-1.00448 z"
       inkscape:export-xdpi="300"
       inkscape:export-ydpi="300" />
    <path
       inkscape:connector-curvature="0"
       style="fill:#000000;stroke-width:0.03706101"
       d="m 16.915276,278.30795 -2.254136,2.24414 c -1.239729,1.23426 -2.29377,2.31627 -2.342372,2.40455 -0.06147,0.11165 -0.05924,0.18969 0.0072,0.25617 0.06981,0.0698 -0.06572,0.25946 -0.502784,0.70365 -0.523736,0.53231 -0.642286,0.7165 -0.951646,1.4781 -0.19437,0.47854 -0.353379,0.93548 -0.353382,1.01541 0,0.2047 0.07505,0.18967 1.063985,-0.21339 0.764957,-0.31176 0.959677,-0.43612 1.485335,-0.94838 0.469215,-0.45727 0.646126,-0.57865 0.78856,-0.5413 0.15042,0.0395 0.599771,-0.36154 2.484536,-2.21714 1.265485,-1.2459 2.300824,-2.30949 2.300824,-2.36366 0,-0.0542 -0.388443,-0.48548 -0.863118,-0.95837 z m -0.0011,0.51617 0.650375,0.6503 0.650086,0.65017 -0.201083,0.18921 -0.201229,0.18907 -0.642053,-0.64647 -0.642125,-0.64625 0.192976,-0.19312 z m -0.608108,0.60471 0.649657,0.64531 0.649507,0.64501 -1.793189,1.79479 c -0.986207,0.98704 -1.81392,1.79463 -1.8393,1.79463 -0.02538,0 -0.326642,-0.28265 -0.669703,-0.628 l -0.62376,-0.62787 1.813454,-1.81194 z m 0.197178,0.50633 c -0.0736,0.003 -0.178221,0.0827 -0.36518,0.26522 -0.188082,0.18365 -0.321803,0.36641 -0.297212,0.40621 0.08753,0.14163 0.264033,0.0682 0.553309,-0.23018 0.228074,-0.23531 0.270185,-0.32583 0.189574,-0.40644 -0.02013,-0.0201 -0.04137,-0.0319 -0.06616,-0.0344 -0.0047,-3.6e-4 -0.0094,-5.2e-4 -0.01433,-3.6e-4 z m -0.969666,1.00535 c -0.107876,0.005 -0.398465,0.26253 -1.151496,0.99869 -1.237491,1.20974 -1.307764,1.29099 -1.228371,1.41946 0.02914,0.0472 0.08043,0.0857 0.113933,0.0857 0.03351,0 0.581183,-0.52145 1.21708,-1.15866 0.883124,-0.88495 1.142405,-1.19456 1.097785,-1.31082 -0.0089,-0.0231 -0.02403,-0.0355 -0.04893,-0.0344 z m -2.893147,2.58927 0.426273,0.43279 0.426276,0.43294 -0.515527,0.52761 c -0.283547,0.29025 -0.643887,0.58312 -0.800719,0.65081 -0.700119,0.30219 -1.140643,0.45543 -1.141074,0.39681 0,-0.035 0.117858,-0.35781 0.262537,-0.71747 0.208512,-0.51833 0.374957,-0.76493 0.802605,-1.18878 z m -1.84837,4.74012 c 0.04419,0.0289 0.08869,0.0572 0.133043,0.0858 0.0019,-0.003 0.0036,-0.006 0.0053,-0.008 -0.04551,-0.0303 -0.09165,-0.0564 -0.138328,-0.0775 z m 2.189568,0.27217 c -0.03085,0.0119 -0.05081,0.0203 -0.02983,0.0157 0.0108,-0.002 0.02356,-0.006 0.03512,-0.009 -0.0019,-0.002 -0.0033,-0.005 -0.0052,-0.006 z m -0.132825,0.0899 c -0.01809,0.004 -0.03162,0.006 -0.049,0.01 0.0026,0.003 0.0053,0.006 0.008,0.009 0.01557,-0.007 0.02516,-0.0113 0.04098,-0.0186 z m -3.7933963,1.75099 v 0.0162 c 0.0036,-0.003 0.0068,-0.006 0.01043,-0.008 -0.0036,-0.002 -0.0069,-0.005 -0.01043,-0.008 z"
       id="path4201-5"
       inkscape:export-xdpi="300"
       inkscape:export-ydpi="300" />
    <path
       style="fill:none;fill-rule:evenodd;stroke:#000000;stroke-width:0.39395562;stroke-linecap:round;stroke-linejoin:round;stroke-miterlimit:4;stroke-dasharray:none;stroke-opacity:1"
       d="m 10.771585,283.34172 -2.1700923,-2.49973 -8.0760459,6.34546 7.4442479,9.2023 8.0211043,-6.09823 -2.801894,-3.84574"
       id="path4748"
       inkscape:connector-curvature="0"
       inkscape:export-xdpi="300"
       inkscape:export-ydpi="300" />
  </g>
</svg>
